# xmcd
#
# Track frame offsets: 
#        150
#        19656
#        40720
#        54659
#        76797
#        91740
#        107850
#        130487
#        145708
#        160202
#        177505
#        187110
#        206279
#        221568
#        237001
#        247878
#
# Disc length: 3376 seconds
#
# Revision: 0
# Processed by: cddbd v1.5.1PL2 Copyright (c) Steve Scherf et al.
# Submitted via: ExactAudioCopy v0.95b4
#
DISCID=d10d2e10
DTITLE=Jüri Rosenfeld - Fab Four, 4ever!
DYEAR=1990
DGENRE=Blues
TTITLE0=Come back, dreamer!
TTITLE1=Love (that lasts forever)
TTITLE2=Fab Four, 4ever!
TTITLE3=Julia (you look so beautiful to me)
TTITLE4=One day
TTITLE5=Soviet life
TTITLE6=Why?
TTITLE7=Last night
TTITLE8=Floating downstreams your mind
TTITLE9=Feel rude
TTITLE10=Darling, please listen to me
TTITLE11=Happiness is you
TTITLE12=Magic girl
TTITLE13=Wait for me
TTITLE14=Back to England
TTITLE15=Just the simple words
EXTD=
EXTT0=
EXTT1=
EXTT2=
EXTT3=
EXTT4=
EXTT5=
EXTT6=
EXTT7=
EXTT8=
EXTT9=
EXTT10=
EXTT11=
EXTT12=
EXTT13=
EXTT14=
EXTT15=
PLAYORDER=
